<?xml version="1.0" encoding="UTF-8"?>
<svg id="Layer_2" data-name="Layer 2" xmlns="http://www.w3.org/2000/svg" viewBox="0 0 442.91 314.29">
  <defs>
    <style>
      .cls-1 {
        fill: #ff9100;
      }

      .cls-2 {
        fill: none;
        stroke: #ff9100;
        stroke-miterlimit: 10;
        stroke-width: 3px;
      }
    </style>
  </defs>
  <g id="Layer_1-2" data-name="Layer 1">
    <g>
      <g>
        <path class="cls-1" d="M93.15,289.06h-.02c-4.32-.98-8.5-2.59-12.24-4.97-15.81-10.08-42.06-39.72-5.62-117.37,40.6-86.53,65.87-119.02,73.31-127.59,1.51-1.89,3.01-3.77,4.52-5.67,5.11-6.81,18.48-22.03,33.81-18.96,17.17,3.43-.49,35.68-5.17,43.69-.83,1.42-1.64,2.85-2.41,4.29l-26.21,48.87s-4.71,8.6-.93,9.92c1.11.38,2.32-.18,2.91-1.19,5.89-10.14,45.64-78.21,56.65-88.85,11.9-11.5,19.31-14.54,23.72-12.93,4.41,1.61,12.97,5.35,9.41,15.69-3.53,10.22-36.75,80.28-47.86,96.38-.28.41-.45.88-.46,1.38-.05,1.98.69,6.59,9.12,3.49,9.11-3.35,43.19-73.96,52.4-93.34,1.03-2.31,2.05-4.59,3.09-6.9,2.14-5.01,8.82-17.46,21.69-15.46,4.82.75,8.33,2.81,10.89,5.34,5.56,5.48,6.9,13.96,4.1,21.25-7.39,19.23-28.38,72.94-39.8,93.09-3.78,6.67,4.74,14.14,10.49,9.06.58-.51,1.09-1.11,1.52-1.83,7.75-12.75,49.38-82.72,59.82-100.27,1.13-1.9,2.22-3.8,3.29-5.74,3.06-5.52,13.39-21.74,25.03-13.23,13.16,9.62,10.76,28.1,10.46,30.06,0,0-.03.15-.07.32-4.46,20.19-46.68,69.96-59.73,105.47-3.65,9.94-7.66,25.96-5.35,48.52.18.59.35,1.18.53,1.76.58,2.65,2.04,7.47,6.16,11.37,1.98,1.88,4.13,3.14,6.42,4.02,3.33,1.28,6.96,1.74,10.81,2.1,22.32,2.05,38.63-4.01,65.54-35.85,3.4-4.02,11.84,2.56,18.55,7.07.62.42,6.35,5.35,9.05,12.6,4.41,11.86-.55,27.02-12.25,38.5-5.63,4.05-11.56,8.14-17.81,12.22-7.51,4.92-14.85,9.43-21.97,13.57,0,0,0,0,0,0-28.98,17.24-55.21,22.88-78.79,20.89-.05,0-.11,0-.16-.01-.03,0-.07-.01-.13-.02-2.35-.33-38.76-6.06-55.95-37.06-2.25-4.07-3.33-6.43-4.48-10.02-.91-2.85-1.87-7-2.05-12.68-.25-8.09,1.09-19.29,6.45-34.24,1.69-4.7-1.21-9.35-5.82-11.28-13.96-5.82-72.63-20.4-92.63-.9-22.52,21.96-15.74,96.66-41.87,95.45Z"/>
      </g>
      <g>
        <path class="cls-2" d="M100.67,22.13S58.17,31.82,25.82,119.03"/>
        <path class="cls-2" d="M76.25,9.25S33.75,18.94,1.41,106.15"/>
      </g>
      <g>
        <path class="cls-2" d="M395.87,143.81s30.83-30.82,11.81-121.87"/>
        <path class="cls-2" d="M423.4,141.73s30.83-30.82,11.81-121.87"/>
      </g>
    </g>
  </g>
</svg>