<?xml version="1.0" encoding="UTF-8"?>
<svg id="Layer_2" data-name="Layer 2" xmlns="http://www.w3.org/2000/svg" viewBox="0 0 558.38 732.7">
  <defs>
    <style>
      .cls-1 {
        fill: #ff910055;
        stroke: #ff910055;
        stroke-miterlimit: 10;
      }
    </style>
  </defs>
  <g id="Layer_1-2" data-name="Layer 1">
    <g>
      <g>
        <path class="cls-1" d="M98.78,311.94c8.51-9.11,16.67-18.6,24.97-27.9,6.57-7.36,14.76-21.27,26.49-14.31,15.45,9.17-7.65,28.65-14.22,36.2-8.77,10.08-17.29,20.34-26.24,30.26l-.99,1.75c8.53-7.54,15.59-16.63,23.51-24.76,4.36-4.48,12.95-13.91,18.96-15.02,13.3-2.44,17.97,10.39,10.04,20.04-8.7,10.58-21.8,21.27-31.53,31.48-2.19,2.29-4.99,5.15-6.98,7.51-.47.56-1.21.81-.99,1.75,6.6-5.05,12.36-11.83,19.05-16.7,5.53-4.02,13.14-6.32,18.2-.31,7.31,8.67-5.35,19.58-11.25,25.26-13.65,13.15-30.55,28.38-45.27,40.23-10.63,8.55-19.09,14.09-33.5,13.03-21.13-1.55-46.1-21.45-49.67-42.83-3.75-22.48,8.61-44.57.82-65.32-1.73-4.6-7.64-13.85-7.35-18.04.66-9.51,11.31-9.87,18.47-8.08,11.75,2.94,15.94,13.03,17.43,24.07.61,4.53-1.13,8.89,4.78,10.72,4.48,1.38,6.94-.91,9.75-3.93,7.59-8.14,14.47-19.01,21.54-27.84,4.53-5.65,20.02-26.05,24.98-28.52,8.45-4.21,18.47,3.48,16.16,12.66-1.42,5.63-15.18,21.47-19.37,27.13l-7.79,11.46ZM87.93,324.29c-1.92-2.61,2.69-7.89,4.23-10.21,9.31-14.01,20.47-26.72,29.72-40.78,1.8-9.4-6.66-13.01-13.64-6.63-6.3,5.76-15.64,18.92-21.44,26.17-6.41,8.02-12.36,17.11-19.04,24.84-5.02,5.81-10.62,10.8-18.46,5.48-5.42-3.68-4.04-8.51-4.6-13.9-.54-5.21-3.4-12.59-7.47-16.03-5.42-4.57-22.96-7.63-20.12,3.62,1.07,4.24,5.33,10.28,7.04,14.96,8.4,23.09-7.54,46.99.61,70.89,7.14,20.94,36.01,39.34,57.99,32.47,6.99-2.18,14.42-8.3,20.03-12.97,11.42-9.52,23.52-20.41,34.5-30.5,5.36-4.93,17.98-15.76,19.85-22.15.38-1.29.69-2.04.19-3.37-1.59-4.25-6.57-4.43-10.33-3.27-1.96.61-4.31,2.74-5.96,4.04-8.19,6.51-15.22,14.56-23.57,20.92-3.9,2.05-6.68-1.85-4.42-5.41,1.46-2.3,5.43-6.28,7.47-8.53,10.33-11.41,22.07-21.53,32.58-32.67,2.05-2.17,7.52-7.6,8.06-10.19,1.69-8.06-5.03-11.48-11.89-7.9-6.61,3.45-16.63,15.43-22.25,21.25-5.52,5.73-13.37,16.17-19.76,20.23-3.41,2.16-7.17-.26-5.71-4.21.25-.68,1.69-2.52,2.24-3.26,11.33-15.38,27.57-30.32,39.96-45.16,2.13-2.55,5.9-6.85,7.05-9.83,2.6-6.74-2.69-11.78-9.53-10.04-5.12,1.3-15.68,15.7-19.73,20.27-8.72,9.85-18.08,21.64-27.24,30.76-1.65,1.64-4.45,3.68-6.35,1.08Z"/>
        <path class="cls-1" d="M90.14,240.56c2.35-.63,4.09.43,2.88,2.88-.27.55-8.46,5.71-9.99,7.01-6.89,5.86-12.14,13.45-15.85,21.65-.66,1.46-2.16,6.75-2.66,7.34-1.05,1.26-3.91.45-3.68-1.62.13-1.15,1.64-5.05,2.18-6.37,3.13-7.71,9.13-16.59,15.23-22.27,1.97-1.83,9.7-8.04,11.88-8.62Z"/>
        <path class="cls-1" d="M177.1,376.27c2.48-2.42,5.62-6.28,7.58-9.17.94-1.38,4.47-8.11,5.09-8.42,1.24-.62,2.4-.11,2.93,1.12.51,1.87-4.36,9.2-5.72,11.1-5.75,8.02-15.83,16.72-25.03,20.47-1.55.63-8.86,3.27-6.95-.92.6-1.32,7.96-4.01,9.92-5.11,3.76-2.1,9.09-6.08,12.17-9.08Z"/>
        <path class="cls-1" d="M95.52,252.13c1.73,0,2.16,2,1.51,3.32-.22.45-6.75,4.79-8,6-5.49,5.31-9.31,12.57-11.72,19.77-4.13,2.11-3.62-1.3-2.76-4.25,2.01-6.84,7.81-15.14,13.22-19.78,1.25-1.07,6.47-5.05,7.75-5.06Z"/>
        <path class="cls-1" d="M180.15,355.57c1.37,1.34-1.1,5.13-1.97,6.53-4.29,6.95-13.16,14.24-20.74,17.26-1.7.68-5.52,2.25-5.2-1.15.16-1.75,6.05-3.66,7.86-4.69,4.69-2.65,9.41-6.55,12.65-10.85,1.51-2.01,4.66-9.78,7.39-7.11Z"/>
      </g>
      <g>
        <path class="cls-1" d="M425.18,389.17c-5.99,10.93-11.55,22.14-17.3,33.2-4.54,8.75-9.04,24.26-22.13,20.42-17.24-5.07.33-29.66,4.82-38.59,6-11.94,11.72-23.99,17.95-35.8l.53-1.94c-6.4,9.42-10.99,19.97-16.66,29.8-3.12,5.42-9.11,16.68-14.66,19.24-12.29,5.65-19.98-5.63-14.68-16.93,5.82-12.4,15.86-25.99,22.77-38.3,1.55-2.76,3.57-6.22,4.91-9,.32-.66.97-1.09.53-1.94-5.14,6.52-9.05,14.52-14.33,20.89-4.37,5.26-11.17,9.37-17.56,4.8-9.22-6.6.34-20.29,4.65-27.26,9.97-16.12,22.58-35.06,33.92-50.17,8.18-10.91,15.01-18.37,29.24-20.91,20.86-3.72,49.97,9.38,58.72,29.22,9.19,20.86,2.68,45.32,15.35,63.5,2.81,4.03,10.83,11.54,11.58,15.67,1.72,9.38-8.52,12.36-15.9,12.39-12.11.05-18.66-8.69-22.84-19.01-1.72-4.24-1.11-8.89-7.28-9.2-4.69-.23-6.5,2.6-8.48,6.22-5.34,9.76-9.32,22-13.99,32.3-2.99,6.6-12.96,30.19-17.15,33.81-7.15,6.17-18.76,1.19-18.79-8.27-.02-5.81,9.4-24.56,12.06-31.08l4.71-13.03ZM432.63,374.52c2.51,2.06-.65,8.31-1.57,10.94-5.56,15.88-13.23,30.95-18.72,46.86.58,9.55,9.67,10.96,14.86,3.05,4.68-7.14,10.48-22.2,14.31-30.65,4.23-9.35,7.75-19.64,12.31-28.78,3.43-6.87,7.62-13.09,16.53-9.87,6.16,2.22,6.02,7.25,7.89,12.34,1.81,4.92,6.41,11.36,11.2,13.68,6.38,3.09,24.13,1.72,18.6-8.48-2.08-3.84-7.71-8.64-10.52-12.75-13.85-20.29-4.31-47.4-18.12-68.54-12.1-18.52-44.62-29.21-64.21-17.13-6.23,3.84-11.92,11.61-16.2,17.52-8.71,12.05-17.75,25.6-25.89,38.08-3.98,6.1-13.53,19.71-13.76,26.37-.05,1.34-.16,2.15.65,3.31,2.59,3.72,7.46,2.67,10.82.61,1.75-1.07,3.5-3.72,4.77-5.39,6.33-8.33,11.15-17.87,17.67-26.1,3.28-2.95,6.93.15,5.62,4.15-.85,2.59-3.71,7.43-5.13,10.11-7.19,13.61-16.07,26.32-23.49,39.71-1.45,2.61-5.4,9.22-5.29,11.86.35,8.23,7.71,9.88,13.48,4.71,5.55-4.98,12.3-19.06,16.31-26.09,3.94-6.91,8.95-18.97,14.15-24.49,2.77-2.94,7.01-1.52,6.57,2.66-.08.72-1.02,2.86-1.36,3.71-7.17,17.71-19.22,36.2-27.56,53.64-1.43,3-4.02,8.1-4.4,11.27-.85,7.17,5.51,10.75,11.72,7.37,4.63-2.53,11.31-19.09,14.11-24.52,6.02-11.7,12.17-25.43,18.79-36.54,1.19-2,3.4-4.67,5.89-2.62Z"/>
        <path class="cls-1" d="M451.19,456.2c-2.12,1.19-4.07.59-3.5-2.08.13-.6,6.79-7.63,7.95-9.26,5.22-7.38,8.44-16.03,10.01-24.9.28-1.58.43-7.08.76-7.77.7-1.48,3.68-1.4,3.96.66.16,1.15-.34,5.3-.54,6.71-1.12,8.24-4.75,18.34-9.26,25.34-1.45,2.26-7.41,10.19-9.38,11.29Z"/>
        <path class="cls-1" d="M333.39,346.2c-1.81,2.95-3.89,7.47-5.08,10.76-.57,1.57-2.32,8.96-2.85,9.42-1.05.91-2.29.7-3.12-.36-.96-1.69,1.95-10,2.8-12.17,3.59-9.19,11.2-20.11,19.19-26.02,1.35-1,7.77-5.36,6.96-.83-.26,1.43-6.72,5.85-8.35,7.4-3.12,2.97-7.3,8.14-9.55,11.81Z"/>
        <path class="cls-1" d="M443.12,446.32c-1.67.44-2.59-1.41-2.28-2.84.1-.49,5.36-6.31,6.27-7.79,4-6.5,5.91-14.48,6.47-22.06,3.48-3.06,3.83.36,3.72,3.44-.26,7.13-3.83,16.6-7.92,22.43-.95,1.35-5.02,6.5-6.26,6.82Z"/>
        <path class="cls-1" d="M335.54,367.01c-1.66-.96-.2-5.25.29-6.82,2.44-7.79,9.23-17.05,15.82-21.85,1.48-1.08,4.79-3.54,5.32-.17.27,1.74-4.95,5.04-6.46,6.49-3.89,3.73-7.5,8.67-9.58,13.64-.97,2.32-2.1,10.63-5.4,8.72Z"/>
      </g>
      <g>
        <path class="cls-1" d="M400.89,628.68c11.05,5.76,22.38,11.09,33.56,16.6,8.85,4.36,24.44,8.53,20.87,21.7-4.7,17.34-29.66.29-38.68-4.02-12.06-5.75-24.22-11.22-36.17-17.2l-1.95-.49c9.55,6.21,20.19,10.57,30.14,16.03,5.48,3.01,16.87,8.76,19.54,14.26,5.91,12.17-5.21,20.1-16.62,15.03-12.52-5.56-26.32-15.32-38.77-21.97-2.8-1.49-6.3-3.44-9.1-4.72-.67-.31-1.11-.95-1.95-.49,6.63,5.01,14.71,8.74,21.18,13.89,5.35,4.25,9.6,10.97,5.16,17.46-6.4,9.36-20.3.08-27.35-4.08-16.33-9.63-35.52-21.85-50.87-32.86-11.08-7.95-18.68-14.62-21.52-28.8-4.15-20.78,8.34-50.16,27.99-59.31,20.66-9.63,45.25-3.63,63.16-16.68,3.98-2.9,11.31-11.06,15.42-11.91,9.34-1.91,12.53,8.26,12.72,15.64.31,12.1-8.3,18.84-18.53,23.23-4.21,1.8-8.87,1.29-9.05,7.47-.13,4.69,2.74,6.44,6.39,8.35,9.87,5.14,22.19,8.86,32.58,13.32,6.66,2.85,30.46,12.33,34.16,16.44,6.31,7.02,1.58,18.73-7.88,18.96-5.81.14-24.75-8.89-31.32-11.41l-13.12-4.44ZM386.09,621.53c2.01-2.55,8.32.48,10.97,1.34,15.99,5.22,31.22,12.58,47.24,17.74,9.54-.78,10.76-9.9,2.74-14.92-7.24-4.53-22.41-10.01-30.95-13.66-9.44-4.04-19.79-7.34-29.03-11.7-6.94-3.28-13.25-7.35-10.22-16.32,2.1-6.2,7.12-6.17,12.17-8.15,4.88-1.91,11.22-6.65,13.44-11.49,2.96-6.45,1.22-24.16-8.87-18.42-3.8,2.16-8.48,7.89-12.53,10.78-20,14.27-47.3,5.3-68.15,19.54-18.27,12.48-28.28,45.22-15.78,64.56,3.97,6.15,11.85,11.68,17.85,15.83,12.23,8.46,25.96,17.21,38.61,25.09,6.18,3.85,19.99,13.11,26.66,13.21,1.34.02,2.15.12,3.29-.72,3.66-2.67,2.52-7.51.39-10.83-1.11-1.73-3.79-3.42-5.49-4.66-8.46-6.16-18.1-10.77-26.46-17.12-3.02-3.21,0-6.93,4.04-5.7,2.61.79,7.5,3.56,10.21,4.92,13.76,6.9,26.65,15.51,40.19,22.66,2.64,1.39,9.33,5.21,11.97,5.04,8.22-.52,9.71-7.92,4.43-13.57-5.09-5.45-19.31-11.9-26.43-15.76-6.99-3.79-19.15-8.55-24.78-13.63-3-2.7-1.67-6.98,2.53-6.63.72.06,2.88.96,3.74,1.29,17.85,6.8,36.59,18.46,54.2,26.43,3.03,1.37,8.18,3.85,11.36,4.16,7.19.7,10.64-5.74,7.12-11.87-2.63-4.58-19.33-10.91-24.81-13.59-11.82-5.77-25.68-11.63-36.92-18.03-2.02-1.15-4.74-3.3-2.74-5.83Z"/>
        <path class="cls-1" d="M467.36,601.28c1.24,2.1.68,4.05-2.01,3.55-.6-.11-7.77-6.63-9.43-7.75-7.49-5.07-16.2-8.1-25.1-9.49-1.59-.25-7.08-.28-7.78-.6-1.49-.67-1.48-3.64.58-3.98,1.15-.19,5.31.23,6.72.4,8.26.95,18.43,4.37,25.53,8.73,2.29,1.41,10.34,7.2,11.49,9.14Z"/>
        <path class="cls-1" d="M359.85,721.35c2.99,1.75,7.55,3.74,10.86,4.85,1.59.54,9.01,2.14,9.48,2.65.93,1.03.75,2.28-.3,3.13-1.67.99-10.04-1.74-12.22-2.55-9.27-3.4-20.34-10.78-26.42-18.64-1.03-1.33-5.52-7.66-.97-6.94,1.43.23,5.99,6.59,7.57,8.19,3.03,3.06,8.29,7.13,12,9.3Z"/>
        <path class="cls-1" d="M457.66,609.55c.47,1.66-1.35,2.62-2.8,2.34-.49-.09-6.42-5.23-7.92-6.11-6.58-3.87-14.6-5.6-22.19-6.01-3.13-3.42.28-3.84,3.36-3.79,7.13.11,16.68,3.48,22.59,7.45,1.37.92,6.6,4.88,6.95,6.12Z"/>
        <path class="cls-1" d="M380.61,718.76c-.93,1.68-5.24.31-6.82-.15-7.84-2.28-17.24-8.87-22.18-15.36-1.11-1.46-3.64-4.72-.28-5.32,1.73-.31,5.15,4.85,6.62,6.32,3.81,3.81,8.83,7.32,13.83,9.29,2.34.92,10.67,1.88,8.83,5.22Z"/>
      </g>
      <g>
        <path class="cls-1" d="M148.96,89.74c-8.31-9.29-17.02-18.28-25.53-27.38-6.74-7.2-19.85-16.62-11.86-27.67,10.53-14.56,27.85,10.21,34.77,17.43,9.25,9.64,18.7,19.05,27.76,28.87l1.65,1.15c-6.74-9.18-15.16-17.03-22.53-25.65-4.07-4.75-12.69-14.15-13.24-20.24-1.23-13.47,11.97-16.96,20.86-8.19,9.75,9.62,19.21,23.63,28.51,34.25,2.09,2.39,4.68,5.44,6.85,7.63.52.52.7,1.28,1.65,1.15-4.43-7.02-10.67-13.37-14.91-20.48-3.5-5.87-5.11-13.66,1.34-18.16,9.3-6.49,19.02,7.1,24.14,13.48,11.87,14.78,25.51,32.99,35.98,48.72,7.56,11.35,12.31,20.28,9.95,34.54-3.45,20.9-25.52,43.98-47.14,45.6-22.73,1.71-43.61-12.59-64.98-6.71-4.74,1.3-14.49,6.36-18.63,5.69-9.41-1.51-8.81-12.15-6.38-19.12,3.99-11.43,14.42-14.7,25.54-15.19,4.57-.2,8.75,1.92,11.1-3.8,1.78-4.34-.28-6.99-3.03-10.07-7.42-8.3-17.63-16.13-25.78-23.97-5.22-5.02-24.14-22.29-26.15-27.45-3.43-8.79,5.14-18.08,14.07-14.95,5.48,1.92,20.02,17.06,25.27,21.74l10.71,8.79ZM160.27,101.65c-2.78,1.67-7.62-3.39-9.79-5.13-13.12-10.54-24.76-22.8-37.93-33.28-9.2-2.64-13.56,5.46-7.84,12.99,5.17,6.79,17.43,17.28,24.12,23.71,7.41,7.11,15.93,13.86,23.02,21.2,5.33,5.52,9.8,11.55,3.79,18.87-4.15,5.06-8.84,3.26-14.26,3.32-5.24.06-12.85,2.25-16.64,6-5.04,4.98-9.67,22.17,1.79,20.36,4.32-.68,10.72-4.39,15.53-5.66,23.75-6.28,46.12,11.75,70.66,5.79,21.5-5.22,42.43-32.31,37.57-54.82-1.54-7.15-6.96-15.11-11.11-21.12-8.45-12.23-18.21-25.27-27.26-37.11-4.42-5.79-14.07-19.33-20.27-21.77-1.25-.49-1.97-.87-3.34-.49-4.37,1.2-5.01,6.14-4.19,9.99.43,2.01,2.34,4.54,3.49,6.3,5.74,8.75,13.13,16.47,18.71,25.37,1.69,4.07-2.45,6.49-5.79,3.91-2.16-1.66-5.76-5.98-7.82-8.21-10.43-11.32-19.45-23.93-29.59-35.4-1.98-2.24-6.89-8.17-9.42-8.95-7.88-2.41-11.88,3.97-8.94,11.13,2.84,6.9,13.86,17.96,19.16,24.08,5.2,6.02,14.9,14.77,18.37,21.51,1.85,3.59-.9,7.12-4.7,5.31-.65-.31-2.36-1.91-3.05-2.52-14.3-12.67-27.71-30.19-41.37-43.87-2.35-2.35-6.29-6.5-9.16-7.91-6.48-3.19-11.98,1.61-10.85,8.59.84,5.21,14.23,17.04,18.41,21.48,9.02,9.58,19.92,19.96,28.17,29.91,1.48,1.79,3.26,4.76.5,6.43Z"/>
        <path class="cls-1" d="M77.09,91.89c-.41-2.4.8-4.03,3.13-2.61.52.32,4.92,8.95,6.08,10.58,5.22,7.39,12.3,13.3,20.13,17.74,1.4.79,6.53,2.76,7.07,3.31,1.16,1.16.1,3.93-1.95,3.52-1.14-.23-4.88-2.09-6.15-2.74-7.4-3.81-15.7-10.59-20.8-17.18-1.64-2.12-7.13-10.39-7.52-12.61Z"/>
        <path class="cls-1" d="M220.09,17.54c-2.18-2.69-5.75-6.17-8.45-8.38-1.29-1.06-7.67-5.18-7.93-5.83-.51-1.29.11-2.4,1.38-2.82,1.91-.34,8.77,5.18,10.54,6.7,7.47,6.45,15.22,17.27,18.13,26.77.49,1.61,2.46,9.11-1.54,6.83-1.26-.72-3.27-8.28-4.19-10.34-1.76-3.93-5.23-9.6-7.94-12.94Z"/>
        <path class="cls-1" d="M89.09,87.58c.15-1.72,2.19-1.97,3.44-1.2.43.26,4.16,7.16,5.25,8.51,4.79,5.94,11.68,10.4,18.64,13.46,1.72,4.3-1.62,3.49-4.49,2.36-6.63-2.62-14.37-9.15-18.51-14.95-.96-1.34-4.45-6.9-4.34-8.18Z"/>
        <path class="cls-1" d="M199.75,12.63c1.46-1.25,5.01,1.56,6.33,2.55,6.53,4.9,13,14.39,15.32,22.21.52,1.76,1.74,5.7-1.62,5.08-1.73-.32-3.1-6.35-3.96-8.25-2.22-4.91-5.67-9.97-9.66-13.58-1.86-1.69-9.32-5.53-6.41-8Z"/>
      </g>
      <g>
        <path class="cls-1" d="M490.38,83.56c12.15-2.79,24.22-6.09,36.3-9.16,9.56-2.43,24.13-9.38,29.96,2.95,7.68,16.24-22.37,19.47-32.03,22.06-12.91,3.45-25.71,7.19-38.68,10.4l-1.8.9c11.29-1.48,22.22-5.07,33.34-7.37,6.12-1.27,18.52-4.29,24.12-1.84,12.39,5.42,9.08,18.67-2.89,22.22-13.13,3.9-29.96,5.44-43.75,8.46-3.1.68-7.02,1.47-9.98,2.32-.71.2-1.46,0-1.8.9,8.29-.49,16.86-2.9,25.13-3.19,6.83-.24,14.43,2.11,15.26,9.93,1.2,11.28-15.39,13.24-23.45,14.65-18.67,3.27-41.2,6.44-60.03,8.03-13.59,1.14-23.7,1-35.06-7.94-16.65-13.11-26.22-43.56-17.22-63.29,9.47-20.73,32.07-32.13,37.22-53.69,1.14-4.78,1.42-15.76,4-19.07,5.86-7.52,14.89-1.85,19.83,3.64,8.09,9.01,5.92,19.72.99,29.7-2.03,4.1-5.91,6.74-2.03,11.56,2.94,3.66,6.26,3.12,10.28,2.2,10.84-2.5,22.63-7.66,33.43-11.02,6.91-2.15,31.17-10.39,36.66-9.67,9.36,1.24,13.36,13.22,6.31,19.54-4.32,3.88-24.6,9.31-31.23,11.66l-12.86,5.14ZM474.49,87.73c-.13-3.24,6.64-5.04,9.21-6.1,15.56-6.41,31.91-10.7,47.45-17.18,6.75-6.78,1.76-14.52-7.6-13.13-8.44,1.25-23.55,6.93-32.41,9.7-9.8,3.06-19.82,7.27-29.68,9.94-7.41,2.01-14.85,3.01-18.36-5.78-2.43-6.08,1.41-9.32,3.97-14.1,2.47-4.62,4.22-12.34,2.77-17.47-1.93-6.82-14.76-19.17-18.7-8.25-1.48,4.11-1.33,11.5-2.53,16.34-5.95,23.84-32.53,34.74-39.15,59.1-5.79,21.35,7.84,52.75,29.9,59.35,7.01,2.1,16.6,1.19,23.86.45,14.79-1.5,30.92-3.76,45.66-5.98,7.2-1.09,23.72-3,28.85-7.26,1.04-.86,1.71-1.31,2.04-2.69,1.05-4.41-2.96-7.35-6.73-8.49-1.96-.59-5.1-.14-7.2.02-10.43.81-20.76,3.56-31.24,4.16-4.38-.49-4.5-5.27-.63-6.96,2.5-1.09,8.02-2.16,10.96-2.89,14.94-3.68,30.34-5.5,45.28-8.85,2.91-.65,10.48-2.1,12.38-3.94,5.91-5.74,2.25-12.33-5.44-13.2-7.41-.84-22.42,3.48-30.33,5.17-7.78,1.66-20.12,5.93-27.7,5.72-4.04-.11-5.8-4.23-2.38-6.68.59-.42,2.81-1.14,3.68-1.45,18-6.42,39.81-9.71,58.38-15.08,3.19-.92,8.73-2.38,11.34-4.21,5.92-4.14,4.36-11.27-2.29-13.65-4.97-1.78-21.79,4.25-27.69,5.77-12.74,3.28-27.09,7.82-39.79,10.26-2.28.44-5.75.56-5.87-2.66Z"/>
        <path class="cls-1" d="M523.15,19.56c2.3.8,3.15,2.64.77,4-.53.3-10.21,0-12.2.22-8.99,1.01-17.58,4.36-25.25,9.08-1.37.84-5.57,4.39-6.31,4.6-1.57.46-3.49-1.81-2.14-3.4.75-.88,4.19-3.27,5.37-4.06,6.9-4.64,16.85-8.64,25.08-9.93,2.65-.42,12.54-1.24,14.67-.5Z"/>
        <path class="cls-1" d="M519.32,180.69c3.41-.61,8.17-2.06,11.41-3.36,1.55-.62,8.24-4.22,8.93-4.13,1.38.18,2.05,1.25,1.8,2.57-.62,1.84-8.77,5.19-10.95,6-9.25,3.43-22.47,5.01-32.2,2.97-1.64-.34-9.17-2.24-5.24-4.65,1.24-.76,8.84,1.13,11.08,1.31,4.29.36,10.93.04,15.17-.72Z"/>
        <path class="cls-1" d="M521.14,32.16c1.44.96.67,2.87-.61,3.6-.43.25-8.28.19-9.99.5-7.52,1.33-14.75,5.22-20.78,9.84-4.6-.56-2.28-3.1.09-5.07,5.49-4.55,14.95-8.18,22.02-9,1.64-.19,8.19-.57,9.26.14Z"/>
        <path class="cls-1" d="M533.43,165.24c.39,1.88-3.78,3.64-5.28,4.32-7.44,3.36-18.87,4.45-26.85,2.71-1.79-.39-5.84-1.22-3.67-3.86,1.12-1.36,7.06.35,9.14.51,5.37.43,11.47-.16,16.56-1.91,2.38-.82,9.33-5.5,10.1-1.76Z"/>
      </g>
      <g>
        <path class="cls-1" d="M72.18,605.14c-11.13,5.62-22.06,11.71-33.05,17.58-8.7,4.64-21.19,14.88-29.8,4.31-11.34-13.93,17.06-24.26,25.82-29.09,11.7-6.44,23.24-13.14,35.06-19.36l1.54-1.3c-10.61,4.14-20.37,10.24-30.6,15.14-5.64,2.7-16.95,8.6-22.97,7.56-13.33-2.29-13.29-15.95-2.52-22.27,11.82-6.93,27.79-12.45,40.45-18.68,2.84-1.4,6.46-3.11,9.14-4.64.64-.36,1.42-.35,1.54-1.3-7.93,2.46-15.68,6.85-23.63,9.11-6.58,1.87-14.51,1.4-17.19-5.98-3.87-10.66,11.77-16.54,19.27-19.84,17.35-7.65,38.46-16.12,56.36-22.17,12.92-4.36,22.77-6.65,35.94-.69,19.3,8.74,35.89,36.02,31.87,57.32-4.23,22.4-23.44,38.88-23.28,61.04.03,4.92,2.4,15.64.68,19.47-3.89,8.7-14.02,5.37-20.12,1.22-10.01-6.81-10.47-17.73-8.07-28.6.99-4.47,4.12-7.96-.8-11.71-3.73-2.84-6.83-1.53-10.51.33-9.93,5.02-20.14,12.86-29.82,18.71-6.2,3.75-27.77,17.55-33.28,18.16-9.38,1.04-16.14-9.64-10.81-17.46,3.27-4.8,21.65-14.93,27.53-18.8l11.26-8.07ZM86.61,597.29c.9,3.12-5.24,6.48-7.49,8.13-13.57,9.95-28.42,18.03-41.95,28.04-4.93,8.2,1.77,14.51,10.52,10.93,7.9-3.24,21.2-12.37,29.14-17.18,8.78-5.32,17.5-11.8,26.43-16.76,6.71-3.72,13.69-6.48,19.21,1.21,3.82,5.32.86,9.38-.48,14.64-1.29,5.08-1.14,12.99,1.49,17.62,3.51,6.16,18.92,15.08,20.13,3.53.46-4.35-1.47-11.49-1.45-16.47.07-24.57,23.27-41.51,23.86-66.76.51-22.12-20.25-49.34-43.25-50.46-7.31-.36-16.4,2.82-23.27,5.27-14,5-29.12,11.06-42.9,16.74-6.73,2.78-22.31,8.6-26.27,13.95-.8,1.08-1.35,1.68-1.34,3.1.03,4.53,4.64,6.42,8.57,6.63,2.05.11,4.99-1.08,6.98-1.74,9.94-3.29,19.31-8.43,29.34-11.52,4.37-.58,5.63,4.04,2.28,6.6-2.17,1.66-7.27,4.02-9.95,5.43-13.63,7.15-28.14,12.6-41.84,19.44-2.67,1.33-9.68,4.55-11.08,6.79-4.37,6.99.77,12.51,8.44,11.51,7.4-.96,20.93-8.75,28.21-12.28s18.12-10.57,25.53-12.18c3.94-.86,6.64,2.71,3.91,5.92-.47.55-2.46,1.78-3.23,2.29-15.94,10.54-36.33,18.96-53.08,28.62-2.88,1.66-7.9,4.4-10,6.8-4.76,5.43-1.54,11.99,5.49,12.71,5.25.54,20.13-9.34,25.51-12.23,11.58-6.24,24.43-14.08,36.17-19.48,2.11-.97,5.44-1.92,6.34,1.17Z"/>
        <path class="cls-1" d="M55.68,675.12c-2.43-.22-3.69-1.81-1.71-3.7.44-.42,9.91-2.45,11.79-3.14,8.48-3.13,16.03-8.44,22.34-14.86,1.13-1.15,4.36-5.59,5.02-5.98,1.42-.82,3.82.92,2.89,2.79-.52,1.04-3.28,4.18-4.24,5.23-5.59,6.16-14.29,12.43-21.97,15.65-2.48,1.04-11.88,4.2-14.12,4Z"/>
        <path class="cls-1" d="M20.82,517.77c-3.16,1.41-7.44,3.96-10.28,5.99-1.36.98-6.99,6.07-7.68,6.15-1.38.15-2.29-.72-2.36-2.07.17-1.94,7.27-7.14,9.2-8.45,8.16-5.55,20.62-10.24,30.55-10.59,1.68-.06,9.44-.02,6.2,3.26-1.02,1.03-8.85,1.02-11.07,1.38-4.25.68-10.62,2.57-14.55,4.33Z"/>
        <path class="cls-1" d="M54.63,662.42c-1.62-.59-1.34-2.62-.27-3.64.36-.34,7.99-2.17,9.58-2.87,6.98-3.09,13.07-8.59,17.82-14.52,4.6-.55,2.96,2.47,1.12,4.94-4.24,5.73-12.55,11.52-19.23,14.01-1.55.58-7.82,2.51-9.02,2.08Z"/>
        <path class="cls-1" d="M10.83,536.14c-.83-1.73,2.8-4.44,4.1-5.46,6.42-5.04,17.26-8.83,25.42-9.06,1.83-.05,5.96-.21,4.49,2.87-.76,1.59-6.94,1.35-8.99,1.69-5.31.87-11.09,2.9-15.62,5.82-2.11,1.36-7.75,7.57-9.39,4.13Z"/>
      </g>
    </g>
  </g>
</svg>